<?xml version="1.0" encoding="UTF-8" standalone="no"?>
<!-- Created with Inkscape (http://www.inkscape.org/) -->

<svg
   xmlns:dc="http://purl.org/dc/elements/1.1/"
   xmlns:cc="http://creativecommons.org/ns#"
   xmlns:rdf="http://www.w3.org/1999/02/22-rdf-syntax-ns#"
   xmlns:svg="http://www.w3.org/2000/svg"
   xmlns="http://www.w3.org/2000/svg"
   xmlns:sodipodi="http://sodipodi.sourceforge.net/DTD/sodipodi-0.dtd"
   xmlns:inkscape="http://www.inkscape.org/namespaces/inkscape"
   sodipodi:docname="squirrel-pcb.svg"
   inkscape:version="0.92.4 5da689c313, 2019-01-14"
   id="svg8"
   version="1.1"
   viewBox="0 0 12.5 5.0"
   height="5.0mm"
   width="12.5mm">
  <defs
     id="defs2" />
  <sodipodi:namedview
     id="base"
     pagecolor="#c1c264"
     bordercolor="#666666"
     borderopacity="1.0"
     inkscape:pageopacity="0"
     inkscape:pageshadow="2"
     inkscape:zoom="15.839192"
     inkscape:cx="21.627936"
     inkscape:cy="2.6552206"
     inkscape:document-units="mm"
     inkscape:current-layer="layer2"
     showgrid="true"
     inkscape:window-width="1716"
     inkscape:window-height="1416"
     inkscape:window-x="1720"
     inkscape:window-y="0"
     inkscape:window-maximized="0"
     units="px"
     borderlayer="true">
    <inkscape:grid
       id="grid865"
       units="mm"
       type="xygrid"
       empspacing="1"
       spacingy="2.54"
       spacingx="2.54" />
    <inkscape:grid
       spacingx="2.54"
       spacingy="2.54"
       empspacing="1"
       type="xygrid"
       units="mm"
       id="grid903" />
    <inkscape:grid
       id="grid939"
       units="mm"
       type="xygrid"
       empspacing="1"
       spacingy="2.54"
       spacingx="2.54" />
  </sodipodi:namedview>
  <metadata
     id="metadata5">
    <rdf:RDF>
      <cc:Work
         rdf:about="">
        <dc:format>image/svg+xml</dc:format>
        <dc:type
           rdf:resource="http://purl.org/dc/dcmitype/StillImage" />
        <dc:title />
        <cc:license
           rdf:resource="" />
      </cc:Work>
    </rdf:RDF>
  </metadata>
  <g
     id="g877"
     sodipodi:insensitive="true"
     inkscape:groupmode="layer"
     inkscape:label="[fixed] BG">
    <rect
       id="rect875"
       style="stroke:none;fill-opacity:1;fill:#FFFFFF"
       height="5.0"
       width="12.5"
       y="0"
       x="0" />
  </g>
  <g
     inkscape:groupmode="layer"
     id="layer2"
     inkscape:label="F.Silk"
     style="display:inline">
    <path
       style="fill:#000000;fill-opacity:1;stroke:none;stroke-width:0.02040666px;stroke-linecap:butt;stroke-linejoin:miter;stroke-opacity:1"
       d="m 11.653622,2.0636312 c 0.210496,0.041479 0.208062,-0.31301 0.102129,-0.3294651 C 11.548823,1.4010668 11.481857,0.92612307 11.006153,0.74707654 L 10.860917,0.71515048 C 10.79015,0.40996763 10.707378,0.31259367 10.707378,0.31259367 10.574704,0.11090289 10.398763,0.73329546 10.398763,0.73329546 9.3964567,0.82324743 8.4760764,0.45867429 7.4641556,0.21722836 7.2980429,0.17759226 6.2865462,0.00738587 5.583651,0.85096706 4.8807568,1.6945473 2.8165165,1.8698396 1.0517953,2.2807123 -0.7129223,2.6915821 0.5056252,3.8987263 1.8091928,3.9890662 2.9965635,4.0713514 4.9099058,3.0577587 5.3304173,2.1996888 5.5538198,2.404742 6.025965,2.9742849 5.654479,3.7004537 L 6.5475858,4.728634 c 0.025574,0.029438 0.3184374,0.1793941 0.3989708,0.032002 0.080532,-0.1473922 -0.082184,-0.4564224 -0.082184,-0.4564224 0,0 -0.2536349,-0.4614564 -0.4473251,-0.5641871 0.5879243,-0.4481833 0.9976814,-1.0111846 1.0441574,-1.8226621 0.6681354,-0.1168228 1.7108562,0.5143782 1.7108562,0.5143782 0.3091518,0.7664962 1.3383309,0.7733882 1.7847119,0.8282773 0.07209,0.00883 0.08887,0.1294248 0.11461,0.148456 l 0.470062,0.1609275 c 0,0 0.03681,-0.038809 0.01308,-0.176432 C 11.530785,3.2553516 11.367141,2.965416 11.035597,2.8862293 10.901967,2.8616973 10.37633,2.5751636 10.37633,2.5751636 c 0,0 -0.161395,-0.1103245 -0.119182,-0.3665222 1.380927,0.1017407 1.396471,-0.145013 1.396471,-0.145013 z"
       id="path4594-3"
       inkscape:connector-curvature="0"
       sodipodi:nodetypes="ccccccsszsccszccccscczccccc" />
  </g>
  <g
     inkscape:groupmode="layer"
     id="layer3"
     inkscape:label="F.Mask"
     style="display:inline">
    <path
       style="fill:#000000;fill-opacity:1;stroke:#000000;stroke-width:0.34999999;stroke-linecap:butt;stroke-linejoin:round;stroke-miterlimit:4;stroke-dasharray:none;stroke-opacity:1"
       d="m 11.653622,2.0636312 c 0.210496,0.041479 0.208062,-0.31301 0.102129,-0.3294651 -0.206928,-0.3330993 -0.273894,-0.80804303 -0.749598,-0.98708956 0,0 -0.04294,-0.50442236 -0.148184,-0.56857597 -0.05189,-0.0316275 -0.150591,0.1340931 -0.150591,0.1340931 C 10.574704,0.11090289 10.398763,0.73329546 10.398763,0.73329546 9.3964567,0.82325224 8.4760765,0.45867429 7.4641555,0.21722836 7.298043,0.17759323 6.2865461,0.00738587 5.583651,0.85096706 4.8807569,1.6945473 2.8165165,1.8698396 1.0517953,2.2807123 -0.7129223,2.6915821 0.5056252,3.8987263 1.8091928,3.9890662 2.9965635,4.0713514 4.9099058,3.0577587 5.3304174,2.1996888 5.5538199,2.404742 6.0259651,2.9742849 5.654479,3.7004537 L 6.5475859,4.728634 c 0.025574,0.029438 0.3184374,0.1793941 0.3989706,0.032002 0.080532,-0.1473922 -0.082184,-0.4564224 -0.082184,-0.4564224 0.1222649,0.069688 0.4497173,0.2569438 0.4497173,0.2569438 0.1547426,0.033692 0.2797097,0.088123 0.3543914,-0.00499 C 7.7794681,4.4122865 7.5320763,4.059722 7.4543831,4.0035712 7.1690068,3.7973188 6.7598771,3.6772314 6.7598771,3.6772314 c 0,0 1.0270191,-0.6611501 0.701327,-1.7598642 0.6681354,-0.1168228 1.507069,0.5642082 1.507069,0.5642082 0.114287,0.3325492 0.3023269,0.4709284 0.5962407,0.547878 0.055993,0.014661 0.308158,0.036034 0.3358095,0.045598 0.4319297,0.1494105 0.7933567,0.1526203 1.0564487,0.1849717 0.07209,0.00883 0.08886,0.1294248 0.11461,0.148456 l 0.470063,0.1609275 c 0,0 0.03681,-0.038809 0.01308,-0.176432 -0.02374,-0.1376198 -0.187384,-0.4275554 -0.518928,-0.5067421 0,0 0.0333,-0.1736649 -0.25773,-0.3197417 -0.178401,-0.089534 -0.401537,0.00864 -0.401537,0.00864 0,0 -0.161396,-0.1103245 -0.119182,-0.3665222 1.380927,0.1017407 1.396471,-0.145013 1.396471,-0.145013 z"
       id="path4594"
       inkscape:connector-curvature="0"
       sodipodi:nodetypes="cccsccsszsccszcscscccssscczcscccc" />
  </g>
  <g
     inkscape:groupmode="layer"
     id="layer4"
     inkscape:label="F.Cu"
     style="display:inline">
    <path
       sodipodi:nodetypes="cccsccsszsccszcscscccssscczcscccc"
       inkscape:connector-curvature="0"
       id="path3505"
       d="m 11.653622,2.0636312 c 0.210496,0.041479 0.208062,-0.31301 0.102129,-0.3294651 -0.206928,-0.3330993 -0.273894,-0.80804303 -0.749598,-0.98708956 0,0 -0.04294,-0.50442236 -0.148184,-0.56857597 -0.05189,-0.0316275 -0.150591,0.1340931 -0.150591,0.1340931 C 10.574704,0.11090289 10.398763,0.73329546 10.398763,0.73329546 9.3964567,0.82325224 8.4760765,0.45867429 7.4641555,0.21722836 7.298043,0.17759323 6.2865461,0.00738587 5.583651,0.85096706 4.8807569,1.6945473 2.8165165,1.8698396 1.0517953,2.2807123 -0.7129223,2.6915821 0.5056252,3.8987263 1.8091928,3.9890662 2.9965635,4.0713514 4.9099058,3.0577587 5.3304174,2.1996888 5.5538199,2.404742 6.0259651,2.9742849 5.654479,3.7004537 L 6.5475859,4.728634 c 0.025574,0.029438 0.3184374,0.1793941 0.3989706,0.032002 0.080532,-0.1473922 -0.082184,-0.4564224 -0.082184,-0.4564224 0.1222649,0.069688 0.4497173,0.2569438 0.4497173,0.2569438 0.1547426,0.033692 0.2797097,0.088123 0.3543914,-0.00499 C 7.7794681,4.4122865 7.5320763,4.059722 7.4543831,4.0035712 7.1690068,3.7973188 6.7598771,3.6772314 6.7598771,3.6772314 c 0,0 1.0270191,-0.6611501 0.701327,-1.7598642 0.6681354,-0.1168228 1.507069,0.5642082 1.507069,0.5642082 0.114287,0.3325492 0.3023269,0.4709284 0.5962407,0.547878 0.055993,0.014661 0.308158,0.036034 0.3358095,0.045598 0.4319297,0.1494105 0.7933567,0.1526203 1.0564487,0.1849717 0.07209,0.00883 0.08886,0.1294248 0.11461,0.148456 l 0.470063,0.1609275 c 0,0 0.03681,-0.038809 0.01308,-0.176432 -0.02374,-0.1376198 -0.187384,-0.4275554 -0.518928,-0.5067421 0,0 0.0333,-0.1736649 -0.25773,-0.3197417 -0.178401,-0.089534 -0.401537,0.00864 -0.401537,0.00864 0,0 -0.161396,-0.1103245 -0.119182,-0.3665222 1.380927,0.1017407 1.396471,-0.145013 1.396471,-0.145013 z"
       style="fill:#000000;fill-opacity:1;stroke:none;stroke-width:0.02040666px;stroke-linecap:butt;stroke-linejoin:miter;stroke-opacity:1" />
  </g>
  <g
     id="g915"
     inkscape:groupmode="layer"
     inkscape:label="Edge.Cuts" />
  <g
     id="g923"
     inkscape:groupmode="layer"
     inkscape:label="Drill" />
  <g
     inkscape:groupmode="layer"
     id="layer1"
     inkscape:label="B.Silk-disabled" />
  <g
     inkscape:groupmode="layer"
     id="layer5"
     inkscape:label="B.Mask-disabled" />
  <g
     inkscape:groupmode="layer"
     id="layer6"
     inkscape:label="B.Cu-disabled" />
</svg>
