<?xml version="1.0" encoding="UTF-8" standalone="no"?>
<!-- Created with Inkscape (http://www.inkscape.org/) -->

<svg
   xmlns:dc="http://purl.org/dc/elements/1.1/"
   xmlns:cc="http://creativecommons.org/ns#"
   xmlns:rdf="http://www.w3.org/1999/02/22-rdf-syntax-ns#"
   xmlns:svg="http://www.w3.org/2000/svg"
   xmlns="http://www.w3.org/2000/svg"
   xmlns:sodipodi="http://sodipodi.sourceforge.net/DTD/sodipodi-0.dtd"
   xmlns:inkscape="http://www.inkscape.org/namespaces/inkscape"
   width="500"
   height="200"
   viewBox="0 0 132.29166 52.916668"
   version="1.1"
   id="svg8"
   inkscape:version="0.92.4 5da689c313, 2019-01-14"
   sodipodi:docname="squirrel.svg">
  <defs
     id="defs2" />
  <sodipodi:namedview
     id="base"
     pagecolor="#286327"
     bordercolor="#666666"
     borderopacity="1.0"
     inkscape:pageopacity="0"
     inkscape:pageshadow="2"
     inkscape:zoom="2.8"
     inkscape:cx="302.12978"
     inkscape:cy="200.11636"
     inkscape:document-units="px"
     inkscape:current-layer="layer1"
     showgrid="false"
     inkscape:window-width="3436"
     inkscape:window-height="1416"
     inkscape:window-x="0"
     inkscape:window-y="0"
     inkscape:window-maximized="0"
     units="px" />
  <metadata
     id="metadata5">
    <rdf:RDF>
      <cc:Work
         rdf:about="">
        <dc:format>image/svg+xml</dc:format>
        <dc:type
           rdf:resource="http://purl.org/dc/dcmitype/StillImage" />
        <dc:title></dc:title>
        <cc:license
           rdf:resource="" />
      </cc:Work>
    </rdf:RDF>
  </metadata>
  <g
     inkscape:label="Layer 1"
     inkscape:groupmode="layer"
     id="layer1"
     transform="translate(0,-244.08332)">
    <path
       style="fill:#44a640;fill-opacity:0.73478262;stroke:none;stroke-width:0.23121278px;stroke-linecap:butt;stroke-linejoin:miter;stroke-opacity:1"
       d="m 130.22206,265.60298 c 2.38498,0.46999 2.3574,-3.54648 1.15715,-3.73293 -2.34455,-3.7741 -3.10329,-9.15533 -8.49314,-11.18398 0,0 -0.48644,-5.71523 -1.67896,-6.44211 -0.58787,-0.35833 -1.70623,1.51931 -1.70623,1.51931 -1.50323,-2.28521 -3.49669,4.76666 -3.49669,4.76666 -11.35639,1.01918 -21.784537,-3.11153 -33.249866,-5.84718 -1.882098,-0.44908 -13.342622,-2.37756 -21.306606,7.18043 -7.963973,9.55798 -31.352354,11.54409 -51.347104,16.19938 -19.9947105,4.65527 -6.1882505,18.33253 8.58151,19.3561 13.45322,0.93233 35.131885,-10.55196 39.896392,-20.27411 2.531208,2.3233 7.880737,8.77637 3.671702,17.00405 l 10.119133,11.64955 c 0.289753,0.33358 3.60798,2.03259 4.520441,0.36263 0.912452,-1.67 -0.931173,-5.17139 -0.931173,-5.17139 1.385294,0.78962 5.095414,2.91124 5.095414,2.91124 1.753275,0.38174 3.169184,0.99841 4.015348,-0.0564 1.257516,-1.63037 -1.545497,-5.62502 -2.425782,-6.26122 -3.233386,-2.3369 -7.868933,-3.69752 -7.868933,-3.69752 0,0 11.636394,-7.491 7.946218,-19.93972 7.570148,-1.32363 17.075483,6.39263 17.075483,6.39263 1.294903,3.76786 3.425443,5.33574 6.755563,6.2076 0.63442,0.16609 3.49151,0.40825 3.8048,0.51663 4.89388,1.69286 8.98894,1.72923 11.96985,2.09578 0.81678,0.10044 1.00689,1.46641 1.29856,1.68204 l 5.32593,1.82335 c 0,0 0.4171,-0.43975 0.14821,-1.99902 -0.26889,-1.55927 -2.1231,-4.84431 -5.87958,-5.74152 0,0 0.37732,-1.96767 -2.92015,-3.62275 -2.02133,-1.01451 -4.54952,0.0983 -4.54952,0.0983 0,0 -1.82865,-1.25001 -1.35036,-4.1528 15.64627,1.15275 15.82238,-1.64303 15.82238,-1.64303 z"
       id="path4594"
       inkscape:connector-curvature="0"
       sodipodi:nodetypes="cccsccsszsccszcscscccssscczcscccc" />
    <path
       style="fill:#ffffff;fill-opacity:0.77391304;stroke:none;stroke-width:0.23121278px;stroke-linecap:butt;stroke-linejoin:miter;stroke-opacity:1"
       d="m 130.22206,265.60298 c 2.38498,0.46999 2.3574,-3.54648 1.15715,-3.73293 -2.34455,-3.7741 -3.10329,-9.15533 -8.49314,-11.18398 l -1.64555,-0.36173 c -0.80181,-3.4578 -1.73964,-4.56107 -1.73964,-4.56107 -1.50323,-2.28521 -3.49669,4.76666 -3.49669,4.76666 -11.35639,1.01918 -21.784538,-3.11153 -33.249865,-5.84718 -1.8821,-0.44908 -13.342622,-2.37756 -21.306607,7.18043 -7.963974,9.55798 -31.352354,11.54409 -51.347104,16.19938 -19.9947105,4.65527 -6.1882505,18.33253 8.58151,19.3561 13.45322,0.93233 35.131886,-10.55196 39.896391,-20.27411 2.531208,2.3233 7.880737,8.77637 3.671703,17.00405 l 10.119132,11.64955 c 0.289753,0.33358 3.60798,2.03259 4.520443,0.36263 0.91245,-1.67 -0.931174,-5.17139 -0.931174,-5.17139 0,0 -2.87375,-5.22842 -5.06831,-6.39238 6.661336,-5.07804 11.30399,-11.45699 11.830575,-20.65124 7.570148,-1.32363 19.384446,5.82804 19.384446,5.82804 3.50277,8.6846 15.16364,8.76269 20.22125,9.3846 0.81679,0.1004 1.00689,1.46641 1.29856,1.68204 l 5.32593,1.82335 c 0,0 0.4171,-0.43975 0.14821,-1.99902 -0.26889,-1.55927 -2.1231,-4.84431 -5.87958,-5.74152 -1.51407,-0.27794 -7.46967,-3.52445 -7.46967,-3.52445 0,0 -1.82865,-1.25001 -1.35036,-4.1528 15.64627,1.15275 15.82238,-1.64303 15.82238,-1.64303 z"
       id="path4594-3"
       inkscape:connector-curvature="0"
       sodipodi:nodetypes="ccccccsszsccszccccscczccccc" />
  </g>
</svg>
